<svg width="116" height="23" viewBox="0 0 116 23" fill="none" xmlns="http://www.w3.org/2000/svg">
<path d="M63.3669 22.5694C63.1373 22.5704 62.9104 22.5199 62.7033 22.4215C62.4961 22.3231 62.3139 22.1794 62.1704 22.0012L58.3811 17.3151C58.2545 17.1589 58.1601 16.9794 58.1032 16.787C58.0464 16.5945 58.0282 16.3927 58.0498 16.1933C58.0714 15.9938 58.1323 15.8006 58.229 15.6245C58.3257 15.4484 58.4564 15.293 58.6135 15.1672C58.7706 15.0413 58.9511 14.9475 59.1447 14.8909C59.3383 14.8344 59.5412 14.8164 59.7419 14.8379C59.9425 14.8593 60.1369 14.9199 60.314 15.016C60.4911 15.1122 60.6474 15.2421 60.774 15.3983L64.571 20.0843C64.7528 20.3085 64.8672 20.5793 64.9009 20.8654C64.9345 21.1515 64.8861 21.4412 64.7612 21.7011C64.6363 21.9609 64.4399 22.1804 64.1949 22.334C63.9499 22.4877 63.6661 22.5693 63.3764 22.5694H63.3669Z" fill="#FCB808"/>
<path d="M79.6292 7.24023C79.222 7.24023 78.8314 7.40108 78.5434 7.68739C78.2554 7.97369 78.0936 8.36201 78.0936 8.76691V8.82752C76.9595 7.97543 75.6089 7.45474 74.1935 7.32397C72.778 7.1932 71.354 7.45754 70.0814 8.08727C68.8088 8.717 67.7381 9.68715 66.9897 10.8887C66.2412 12.0902 65.8447 13.4755 65.8447 14.8887C65.8447 16.302 66.2412 17.6873 66.9897 18.8888C67.7381 20.0903 68.8088 21.0605 70.0814 21.6902C71.354 22.32 72.778 22.5843 74.1935 22.4535C75.6089 22.3227 76.9595 21.8021 78.0936 20.95C78.0936 21.3549 78.2554 21.7432 78.5434 22.0295C78.8314 22.3158 79.222 22.4766 79.6292 22.4766C80.0365 22.4766 80.427 22.3158 80.715 22.0295C81.003 21.7432 81.1648 21.3549 81.1648 20.95V8.76691C81.1648 8.36201 81.003 7.97369 80.715 7.68739C80.427 7.40108 80.0365 7.24023 79.6292 7.24023ZM73.4545 19.4347C72.5532 19.4216 71.6758 19.1439 70.9327 18.6365C70.1896 18.1291 69.6139 17.4147 69.278 16.5829C68.9421 15.7512 68.8611 14.8393 69.0449 13.9619C69.2288 13.0845 69.6695 12.2807 70.3115 11.6516C70.9536 11.0224 71.7683 10.596 72.6534 10.4259C73.5385 10.2558 74.4544 10.3496 75.2861 10.6956C76.1177 11.0415 76.8279 11.6241 77.3274 12.3702C77.827 13.1163 78.0935 13.9925 78.0936 14.8887C78.0836 16.1028 77.5895 17.2633 76.7197 18.1156C75.85 18.9678 74.6757 19.4422 73.4545 19.4347Z" fill="white"/>
<path d="M97.5911 7.18945C97.1839 7.18945 96.7933 7.3503 96.5053 7.63661C96.2173 7.92291 96.0556 8.31123 96.0556 8.71612V8.82788C94.9215 7.97579 93.5708 7.4551 92.1554 7.32433C90.74 7.19356 89.3159 7.4579 88.0433 8.08763C86.7707 8.71736 85.7 9.68751 84.9516 10.889C84.2031 12.0906 83.8066 13.4758 83.8066 14.8891C83.8066 16.3024 84.2031 17.6876 84.9516 18.8892C85.7 20.0907 86.7707 21.0609 88.0433 21.6906C89.3159 22.3203 90.74 22.5847 92.1554 22.4539C93.5708 22.3231 94.9215 21.8024 96.0556 20.9503C96.0556 21.3552 96.2173 21.7435 96.5053 22.0299C96.7933 22.3162 97.1839 22.477 97.5911 22.477C97.9984 22.477 98.389 22.3162 98.677 22.0299C98.9649 21.7435 99.1267 21.3552 99.1267 20.9503V8.71612C99.1267 8.31123 98.9649 7.92291 98.677 7.63661C98.389 7.3503 97.9984 7.18945 97.5911 7.18945ZM91.4165 19.435C90.5151 19.422 89.6377 19.1443 88.8946 18.6369C88.1515 18.1295 87.5758 17.415 87.2399 16.5833C86.9041 15.7516 86.823 14.8397 87.0069 13.9623C87.1907 13.0849 87.6314 12.2811 88.2734 11.652C88.9155 11.0228 89.7303 10.5964 90.6153 10.4263C91.5004 10.2562 92.4164 10.35 93.248 10.6959C94.0796 11.0419 94.7898 11.6245 95.2894 12.3706C95.7889 13.1166 96.0555 13.9929 96.0556 14.8891C96.046 16.1033 95.552 17.2641 94.6822 18.1165C93.8124 18.9689 92.6378 19.4431 91.4165 19.435Z" fill="white"/>
<path d="M62.4253 7.36326L55.62 12.4774V1.89679C55.62 1.49189 55.4582 1.10358 55.1702 0.817269C54.8822 0.530962 54.4917 0.370117 54.0844 0.370117C53.6771 0.370117 53.2866 0.530962 52.9986 0.817269C52.7106 1.10358 52.5488 1.49189 52.5488 1.89679V20.9915C52.5488 21.3964 52.7106 21.7848 52.9986 22.0711C53.2866 22.3574 53.6771 22.5182 54.0844 22.5182C54.4917 22.5182 54.8822 22.3574 55.1702 22.0711C55.4582 21.7848 55.62 21.3964 55.62 20.9915V16.2714C55.6992 16.2319 55.7745 16.185 55.8448 16.1312L64.2866 9.80101C64.6118 9.55686 64.826 9.1943 64.8823 8.79308C64.9386 8.39186 64.8322 7.98485 64.5867 7.66158C64.3411 7.33832 63.9764 7.12528 63.5729 7.06933C63.1693 7.01338 62.7599 7.11911 62.4348 7.36326H62.4253Z" fill="white"/>
<path d="M48.0644 7.24222C47.6571 7.24222 47.2665 7.40306 46.9785 7.68937C46.6906 7.97568 46.5288 8.36399 46.5288 8.76889V8.82003C46.5165 8.89774 46.5102 8.97625 46.5097 9.0549V16.3549C46.3192 18.0426 44.816 19.3628 42.9909 19.3628C41.04 19.3628 39.453 17.8475 39.453 16.0007V8.76889C39.453 8.36399 39.2912 7.97568 39.0032 7.68937C38.7152 7.40306 38.3247 7.24222 37.9174 7.24222C37.5101 7.24222 37.1196 7.40306 36.8316 7.68937C36.5436 7.97568 36.3818 8.36399 36.3818 8.76889V16.0007C36.3818 19.5389 39.3463 22.418 42.9909 22.418C44.2568 22.4223 45.4978 22.0682 46.5688 21.3971C46.6612 21.7572 46.8828 22.0713 47.1918 22.2805C47.5008 22.4896 47.876 22.5793 48.2468 22.5328C48.6177 22.4863 48.9587 22.3067 49.2058 22.0278C49.4528 21.7489 49.5889 21.3899 49.5885 21.0182V16.4723C49.5999 16.317 49.6095 16.1598 49.6095 16.0007V8.76889C49.6095 8.5676 49.5694 8.36831 49.4917 8.18246C49.4139 7.99662 49.2999 7.8279 49.1563 7.68601C49.0127 7.54412 48.8423 7.43186 48.6549 7.3557C48.4675 7.27954 48.2668 7.24097 48.0644 7.24222Z" fill="white"/>
<path d="M32.1102 0.370117C31.7029 0.370117 31.3123 0.530962 31.0244 0.817269C30.7364 1.10358 30.5746 1.49189 30.5746 1.89679V8.835C29.448 7.99697 28.109 7.48722 26.7075 7.36281C25.306 7.23841 23.8973 7.50426 22.6392 8.13061C21.381 8.75696 20.323 9.71908 19.5836 10.9093C18.8442 12.0995 18.4526 13.4708 18.4526 14.8697C18.4526 16.2686 18.8442 17.6399 19.5836 18.8301C20.323 20.0203 21.381 20.9825 22.6392 21.6088C23.8973 22.2352 25.306 22.501 26.7075 22.3766C28.109 22.2522 29.448 21.7425 30.5746 20.9044V20.9915C30.5746 21.3964 30.7364 21.7848 31.0244 22.0711C31.3123 22.3574 31.7029 22.5182 32.1102 22.5182C32.5174 22.5182 32.908 22.3574 33.196 22.0711C33.484 21.7848 33.6458 21.3964 33.6458 20.9915V1.89679C33.6458 1.49189 33.484 1.10358 33.196 0.817269C32.908 0.530962 32.5174 0.370117 32.1102 0.370117ZM25.9927 19.3512C25.104 19.3385 24.239 19.0649 23.5063 18.5648C22.7735 18.0648 22.2059 17.3605 21.8746 16.5406C21.5434 15.7206 21.4633 14.8216 21.6445 13.9566C21.8256 13.0916 22.26 12.2991 22.8929 11.6787C23.5258 11.0584 24.329 10.6379 25.2016 10.4702C26.0742 10.3024 26.9772 10.3948 27.7971 10.7358C28.617 11.0768 29.3172 11.6512 29.8097 12.3867C30.3022 13.1223 30.565 13.9861 30.5651 14.8697C30.5545 16.0662 30.0673 17.2097 29.2103 18.0498C28.3532 18.8898 27.1962 19.3578 25.9927 19.3512Z" fill="white"/>
<path d="M108.546 7.12696C107.252 7.12462 105.985 7.49573 104.899 8.19526C104.768 7.86368 104.524 7.58819 104.21 7.41652C103.896 7.24484 103.531 7.18779 103.179 7.25525C102.827 7.3227 102.51 7.51042 102.283 7.78588C102.056 8.06133 101.932 8.40718 101.935 8.76349V21.0129C101.927 21.218 101.962 21.4225 102.036 21.6141C102.11 21.8058 102.222 21.9806 102.365 22.1283C102.508 22.276 102.68 22.3934 102.87 22.4737C103.06 22.5539 103.265 22.5952 103.471 22.5952C103.678 22.5952 103.882 22.5539 104.072 22.4737C104.262 22.3934 104.434 22.276 104.577 22.1283C104.721 21.9806 104.833 21.8058 104.907 21.6141C104.981 21.4225 105.015 21.218 105.008 21.0129V13.5386C105.008 11.6842 106.595 10.1765 108.546 10.1765C110.496 10.1765 112.082 11.6918 112.082 13.5386V20.9996C112.074 21.2047 112.109 21.4092 112.183 21.6009C112.257 21.7925 112.369 21.9674 112.512 22.1151C112.655 22.2627 112.827 22.3802 113.017 22.4604C113.207 22.5406 113.412 22.582 113.618 22.582C113.824 22.582 114.029 22.5406 114.219 22.4604C114.409 22.3802 114.581 22.2627 114.724 22.1151C114.868 21.9674 114.98 21.7925 115.054 21.6009C115.127 21.4092 115.162 21.2047 115.155 20.9996V13.5386C115.155 10.006 112.19 7.12696 108.546 7.12696Z" fill="white"/>
<path d="M14.5767 17.3569C14.2336 17.1536 13.8261 17.0859 13.4351 17.1673C13.0441 17.2487 12.6981 17.4732 12.4658 17.7963C11.658 18.8665 10.1548 19.5825 8.70308 19.5825C6.68931 19.5825 4.82034 18.1164 4.16496 16.2469C4.16372 16.2453 4.16305 16.2433 4.16305 16.2412C4.16305 16.2392 4.16372 16.2372 4.16496 16.2355H15.0626C15.2451 16.2345 15.4199 16.1616 15.5484 16.0327C15.677 15.9038 15.7489 15.7295 15.7484 15.548V14.707C15.7484 10.5209 12.5096 7.24219 8.35062 7.24219C4.19163 7.24219 0.844238 10.6422 0.844238 14.8244C0.844238 19.0066 4.51551 22.6301 8.70118 22.6301C11.1531 22.6301 13.6222 21.4122 14.9882 19.5275C15.1093 19.3598 15.195 19.1693 15.2399 18.9677C15.2848 18.7661 15.2882 18.5576 15.2497 18.3546C15.2112 18.1517 15.1317 17.9587 15.0161 17.7872C14.9004 17.6157 14.7509 17.4693 14.5767 17.3569ZM8.35824 10.2955C9.25548 10.2804 10.1342 10.5498 10.867 11.0648C11.5998 11.5798 12.1485 12.3135 12.4334 13.1595C12.4352 13.1612 12.4361 13.1636 12.4361 13.1661C12.4361 13.1686 12.4352 13.1709 12.4334 13.1727H4.24116C4.23952 13.1729 4.23786 13.1726 4.23636 13.1719C4.23486 13.1712 4.23356 13.1701 4.2326 13.1688C4.23164 13.1674 4.23105 13.1659 4.23088 13.1642C4.23071 13.1626 4.23097 13.161 4.23164 13.1595C4.54867 12.324 5.11244 11.6034 5.84891 11.0922C6.58538 10.5811 7.46012 10.3034 8.35824 10.2955Z" fill="white"/>
</svg>
