<svg width="159" height="29" viewBox="0 0 159 29" fill="none" xmlns="http://www.w3.org/2000/svg">
<path d="M14.9964 23.5023C14.0789 23.5031 13.1817 23.2316 12.4182 22.722C11.6547 22.2125 11.0592 21.4878 10.707 20.6395C10.3547 19.7912 10.2615 18.8575 10.4391 17.9562C10.6167 17.0549 11.0572 16.2265 11.7048 15.5758C12.3525 14.925 13.1783 14.4811 14.0778 14.3001C14.9774 14.1191 15.9104 14.2091 16.7589 14.5588C17.6073 14.9084 18.3333 15.5021 18.8449 16.2647C19.3565 17.0273 19.6309 17.9246 19.6333 18.8433C19.6355 19.4543 19.5171 20.0598 19.2851 20.6249C19.053 21.1901 18.7118 21.7038 18.281 22.1367C17.8502 22.5695 17.3383 22.913 16.7747 23.1473C16.211 23.3816 15.6067 23.5023 14.9964 23.5023Z" fill="#E95218"/>
<path d="M7.46444 5.25841L1.3894 11.3408L7.46444 17.4232L13.5395 11.3408L7.46444 5.25841Z" fill="white"/>
<path d="M29.5526 6.46777H26.3997V9.62452H29.5526V6.46777Z" fill="white"/>
<path d="M29.5322 14.3618V19.4323C29.5322 20.7493 30.4818 20.774 32.2823 20.667V23.5192C27.8756 24.0049 26.3916 22.6961 26.3916 19.4035V14.3618H24.2952V11.3408H32.2823V14.3618H29.5322Z" fill="white"/>
<path d="M40.9476 11.0977V14.6084C39.3033 14.4108 37.248 15.1434 37.248 17.7034V23.5271H34.1074V11.3405H37.248V13.4354C37.881 11.7891 39.4143 11.0977 40.9476 11.0977Z" fill="white"/>
<path d="M54.6158 11.3405V23.5271H51.4752V22.0866C50.9987 22.6729 50.3918 23.1395 49.703 23.4489C49.0142 23.7584 48.2626 23.9021 47.5083 23.8687C44.2691 23.8687 41.593 21.0659 41.593 17.4317C41.593 13.7976 44.2691 10.9989 47.5083 10.9989C48.2626 10.9655 49.0142 11.1092 49.703 11.4187C50.3918 11.7281 50.9987 12.1947 51.4752 12.781V11.3405H54.6158ZM51.4752 17.4317C51.4752 16.9885 51.388 16.5497 51.2186 16.1402C51.0492 15.7308 50.8009 15.3587 50.4879 15.0453C50.1749 14.7319 49.8033 14.4834 49.3943 14.3137C48.9854 14.1441 48.5471 14.0568 48.1044 14.0568C47.6617 14.0568 47.2234 14.1441 46.8145 14.3137C46.4055 14.4834 46.0339 14.7319 45.7209 15.0453C45.4079 15.3587 45.1596 15.7308 44.9902 16.1402C44.8208 16.5497 44.7336 16.9885 44.7336 17.4317C44.7336 18.3268 45.0887 19.1852 45.7209 19.8181C46.353 20.451 47.2104 20.8066 48.1044 20.8066C48.9984 20.8066 49.8558 20.451 50.4879 19.8181C51.1201 19.1852 51.4752 18.3268 51.4752 17.4317Z" fill="white"/>
<path d="M68.8184 6.46777V23.5274H65.6778V22.0869C64.8022 23.2105 63.5115 23.8649 61.7356 23.8649C58.4758 23.8649 55.7957 21.0662 55.7957 17.432C55.7957 13.7979 58.4758 10.9992 61.7356 10.9992C63.5115 10.9992 64.8022 11.6577 65.6778 12.7813V6.46777H68.8184ZM65.6778 17.432C65.6778 16.5369 65.3227 15.6785 64.6905 15.0456C64.0584 14.4127 63.201 14.0571 62.307 14.0571C61.413 14.0571 60.5557 14.4127 59.9235 15.0456C59.2914 15.6785 58.9362 16.5369 58.9362 17.432C58.9362 18.3271 59.2914 19.1855 59.9235 19.8184C60.5557 20.4513 61.413 20.8069 62.307 20.8069C63.201 20.8069 64.0584 20.4513 64.6905 19.8184C65.3227 19.1855 65.6778 18.3271 65.6778 17.432Z" fill="white"/>
<path d="M76.6285 21.0165C77.147 21.034 77.6625 20.9317 78.1351 20.7176C78.6077 20.5035 79.0248 20.1833 79.3539 19.7818L81.8861 21.2429C80.7433 22.8892 78.9182 23.8522 76.5792 23.8522C72.4931 23.8522 69.9116 21.0494 69.9116 17.4153C69.9116 13.7811 72.5137 10.9824 76.3367 10.9824C79.9376 10.9824 82.5027 13.8346 82.5027 17.4153C82.5009 17.8489 82.4596 18.2815 82.3794 18.7076H73.2125C73.6524 20.3169 74.9883 21.0001 76.645 21.0001L76.6285 21.0165ZM79.3704 16.2711C79.253 15.5627 78.8819 14.9214 78.3267 14.4669C77.7714 14.0125 77.0698 13.776 76.3531 13.8017C74.6718 13.8017 73.529 14.703 73.1632 16.2711H79.3704Z" fill="white"/>
<path d="M86.7409 5.27832H83.6003V23.5274H86.7409V5.27832Z" fill="#E95218"/>
<path d="M104.651 16.0449V23.5272H101.511V16.4359C101.511 14.7896 100.516 13.9253 99.1018 13.9253C97.5685 13.9253 96.4258 14.8266 96.4258 16.9462V23.5314H93.2852V11.3406H96.4258V12.707C97.1575 11.6081 98.4195 10.999 100.051 10.999C102.633 10.999 104.651 12.8017 104.651 16.0449Z" fill="#E95218"/>
<path d="M118.841 11.3411V22.9598C118.841 26.9561 115.705 28.7588 112.49 28.7588C109.888 28.7588 107.792 27.7587 106.735 25.7831L109.411 24.248C109.921 25.1987 110.727 25.956 112.601 25.956C114.57 25.956 115.787 24.8818 115.787 22.9598V21.6427C115.336 22.2431 114.746 22.7252 114.068 23.0477C113.39 23.3702 112.644 23.5236 111.894 23.4948C108.437 23.4948 105.835 20.692 105.835 17.2554C105.815 16.4442 105.956 15.6372 106.251 14.8815C106.546 14.1257 106.989 13.4364 107.553 12.8539C108.117 12.2714 108.792 11.8074 109.537 11.489C110.283 11.1706 111.084 11.0042 111.894 10.9995C112.644 10.9707 113.39 11.1241 114.068 11.4466C114.746 11.7691 115.336 12.2512 115.787 12.8516V11.3411H118.841ZM115.787 17.2389C115.802 16.5612 115.615 15.8944 115.249 15.3236C114.884 14.7529 114.357 14.304 113.736 14.0344C113.114 13.7648 112.427 13.6865 111.761 13.8097C111.095 13.9329 110.481 14.2518 109.997 14.7259C109.513 15.2 109.181 15.8077 109.044 16.4715C108.906 17.1353 108.969 17.8251 109.225 18.4528C109.48 19.0806 109.917 19.6179 110.479 19.9962C111.041 20.3745 111.702 20.5766 112.379 20.5768C112.827 20.5991 113.273 20.5286 113.692 20.3697C114.111 20.2108 114.492 19.967 114.812 19.6536C115.132 19.3401 115.384 18.9638 115.552 18.5483C115.719 18.1328 115.8 17.687 115.787 17.2389Z" fill="#E95218"/>
<path d="M88.4221 8.18806C88.4205 7.84839 88.5199 7.51591 88.7075 7.23292C88.8952 6.94994 89.1626 6.72923 89.4759 6.59887C89.7892 6.46852 90.1341 6.43441 90.4668 6.50088C90.7996 6.56736 91.105 6.73141 91.3443 6.97218C91.5836 7.21295 91.746 7.51955 91.8108 7.85297C91.8756 8.1864 91.8398 8.53158 91.7081 8.84461C91.5764 9.15765 91.3547 9.42438 91.0711 9.61088C90.7876 9.79738 90.455 9.89523 90.1158 9.89196C89.6665 9.88764 89.237 9.70648 88.9201 9.38764C88.6031 9.06879 88.4243 8.63788 88.4221 8.18806Z" fill="#E95218"/>
<path d="M88.5624 11.3391L88.5242 23.5215L91.6648 23.5314L91.703 11.3489L88.5624 11.3391Z" fill="#E95218"/>
<path d="M131.683 15.2057C131.695 15.7154 131.604 16.2222 131.414 16.6954C131.225 17.1686 130.942 17.5985 130.582 17.959C130.221 18.3194 129.792 18.6031 129.32 18.7927C128.847 18.9823 128.341 19.074 127.832 19.0621H124.679V23.6223H123.446V11.3452H127.823C128.334 11.331 128.842 11.4212 129.316 11.6101C129.791 11.7991 130.222 12.0828 130.583 12.4441C130.944 12.8054 131.228 13.2366 131.417 13.7114C131.606 14.1863 131.697 14.6947 131.683 15.2057ZM130.45 15.2057C130.468 14.8523 130.413 14.4989 130.289 14.1677C130.164 13.8365 129.973 13.5347 129.726 13.2812C129.479 13.0277 129.183 12.8279 128.856 12.6945C128.528 12.5611 128.177 12.4968 127.823 12.5058H124.679V17.9056H127.832C128.185 17.9128 128.535 17.8473 128.862 17.7132C129.188 17.5791 129.484 17.3794 129.73 17.1262C129.976 16.8731 130.168 16.572 130.293 16.2417C130.419 15.9113 130.475 15.5587 130.458 15.2057H130.45Z" fill="white"/>
<path d="M138.446 18.7119H135.013V23.6219H133.78V11.3448H138.68C139.566 11.3403 140.424 11.657 141.095 12.2362C141.766 12.8155 142.206 13.6183 142.332 14.4965C142.458 15.3747 142.263 16.2689 141.782 17.0142C141.301 17.7595 140.567 18.3055 139.716 18.5514L142.708 23.6219H141.307L138.446 18.7119ZM135.013 17.5513H138.688C139.357 17.5513 139.997 17.2855 140.47 16.8123C140.943 16.3392 141.208 15.6975 141.208 15.0283C141.208 14.3592 140.943 13.7175 140.47 13.2444C139.997 12.7712 139.357 12.5054 138.688 12.5054H135.013V17.5513Z" fill="white"/>
<path d="M143.769 17.481C143.77 16.226 144.142 14.9993 144.839 13.9562C145.536 12.9131 146.527 12.1003 147.685 11.6206C148.843 11.1409 150.118 11.0158 151.347 11.2611C152.576 11.5065 153.705 12.1112 154.591 12.999C155.477 13.8867 156.081 15.0175 156.325 16.2485C156.569 17.4795 156.443 18.7553 155.964 19.9147C155.484 21.0741 154.671 22.0651 153.629 22.7623C152.587 23.4594 151.361 23.8315 150.108 23.8315C149.273 23.8376 148.446 23.6774 147.674 23.3603C146.902 23.0433 146.201 22.5756 145.611 21.9847C145.021 21.3937 144.554 20.6912 144.238 19.918C143.922 19.1449 143.762 18.3164 143.769 17.481ZM155.221 17.481C155.214 16.47 154.908 15.4837 154.342 14.6467C153.775 13.8096 152.974 13.1591 152.039 12.7773C151.104 12.3954 150.077 12.2993 149.088 12.501C148.098 12.7027 147.19 13.1933 146.479 13.9108C145.767 14.6282 145.284 15.5406 145.09 16.5327C144.895 17.5249 144.999 18.5524 145.387 19.4858C145.775 20.4192 146.43 21.2166 147.271 21.7776C148.111 22.3386 149.098 22.638 150.108 22.638C150.784 22.6435 151.454 22.5137 152.08 22.256C152.705 21.9984 153.273 21.6181 153.749 21.1376C154.226 20.6572 154.601 20.0861 154.854 19.4582C155.107 18.8302 155.232 18.158 155.221 17.481Z" fill="white"/>
</svg>
